<svg version="1.1" xmlns="http://www.w3.org/2000/svg" xmlns:xlink="http://www.w3.org/1999/xlink" class="thumbnail-icon"
     viewBox="0.0000095367431640625 0.00012969970703125 200.00001525878906 199.999755859375">
    <g
       data-paper-data="{&quot;fillRule&quot;:&quot;nonzero&quot;,&quot;isIcon&quot;:true,&quot;iconStyle&quot;:&quot;standalone&quot;,&quot;selectedEffects&quot;:{&quot;container&quot;:&quot;&quot;,&quot;transformation&quot;:&quot;&quot;,&quot;pattern&quot;:&quot;&quot;},&quot;bounds&quot;:{&quot;x&quot;:64.99999999999997,&quot;y&quot;:208.6747833729022,&quot;width&quot;:52.650504332369366,&quot;height&quot;:52.650433254195605},&quot;iconType&quot;:&quot;icon&quot;,&quot;rawIconId&quot;:&quot;f2a15bc0-fd76-4034-b5f6-f0f35d75a1ab&quot;,&quot;isDetailed&quot;:false}">
        <path d="M60.36982,27.97144c2.71321,-1.62792 6.33082,-3.43672 10.49108,-5.24553l-0.18088,154.47194c-3.25585,-1.26616 -6.69258,-2.89409 -10.31019,-5.24553v-105.99597l-8.13962,32.55849h-6.87346l-7.95874,-32.01586c-5.42642,10.1293 -8.13962,21.16302 -8.13962,33.10113c0,15.91748 4.52201,30.20704 13.56604,42.6878v16.27925c-11.39547,-12.119 -24.05711,-30.38793 -24.05711,-58.60528c0,-21.70566 9.94843,-43.5922 23.87623,-58.42439l6.5117,28.94088zM79.25528,21.18478c16.00622,-3.55695 25.43211,-4.44617 41.97187,-0.53354v50.15282h-10.13727v-41.61618c-8.35881,-1.24493 -14.58345,-1.06708 -21.69732,0.17785v141.74399c8.89235,1.06708 13.16067,1.06708 21.69732,0v-65.44765h10.13727v73.80647c-16.18407,3.37909 -27.03273,3.0234 -41.97187,-0.35569zM181.53422,99.23838c0,22.79094 -7.77786,41.24075 -23.33359,58.78616v-16.46012c8.68226,-12.48076 13.0234,-26.58944 13.0234,-41.96428c0,-12.119 -2.7132,-22.97183 -8.13962,-32.92026l-6.5117,32.73937h-6.69258l-9.76754,-34.00554v106.53861c-1.98968,1.26616 -5.6073,2.89409 -10.49108,5.24553v-154.47194c3.43673,1.26616 6.87346,3.07496 10.49108,5.24553l12.84252,41.96428l5.42642,-28.76c14.10868,18.26893 23.1527,35.63346 23.1527,58.06263zM29.28929,29.28941c9.2257,-9.22568 19.82068,-16.36876 31.78495,-21.42923c12.38886,-5.24003 25.36416,-7.86005 38.92592,-7.86005c13.56128,0 26.53639,2.62002 38.92534,7.86005c11.96411,5.06047 22.55913,12.20354 31.78506,21.42923c9.22554,9.22575 16.36853,19.82073 21.42895,31.78497c5.24034,12.3889 7.86051,25.36411 7.86051,38.92563c0,13.56167 -2.62017,26.53697 -7.86051,38.92592c-5.06043,11.96411 -12.20341,22.55893 -21.42895,31.78448c-9.22593,9.22593 -19.82095,16.36911 -31.78506,21.42954c-12.38894,5.23996 -25.36405,7.85993 -38.92534,7.85993c-13.56182,0 -26.53713,-2.61998 -38.92592,-7.85993c-11.9643,-5.06043 -22.55928,-12.20361 -31.78495,-21.42954c-9.22569,-9.22554 -16.36877,-19.82037 -21.42924,-31.78448c-5.24003,-12.38894 -7.86005,-25.36424 -7.86005,-38.92592c0,-13.56159 2.62002,-26.5368 7.86005,-38.92563c5.06047,-11.9643 12.20355,-22.55929 21.42924,-31.78497zM34.72856,165.27116c8.51846,8.51865 18.29921,15.11338 29.34223,19.78419c11.43117,4.83486 23.40763,7.25229 35.92935,7.25229c12.52165,0 24.49795,-2.41743 35.92889,-7.25229c11.04287,-4.67081 20.82363,-11.26554 29.34228,-19.78419c8.51827,-8.51827 15.1128,-18.29903 19.78361,-29.34228c4.83486,-11.43094 7.25229,-23.40724 7.25229,-35.92889c0,-12.52169 -2.41743,-24.49805 -7.25229,-35.92906c-4.67081,-11.04314 -11.26534,-20.82389 -19.78361,-29.34224c-8.51865,-8.51841 -18.29941,-15.11302 -29.34228,-19.78382c-11.43094,-4.83497 -23.40724,-7.25246 -35.92889,-7.25246c-12.52184,0 -24.4983,2.41749 -35.92935,7.25246c-11.04306,4.67081 -20.82381,11.26542 -29.34223,19.78382c-8.51842,8.51839 -15.11303,18.29914 -19.78384,29.34224c-4.83494,11.43106 -7.2524,23.40741 -7.2524,35.92906c0,12.52165 2.41747,24.49795 7.2524,35.92889c4.67081,11.04326 11.26542,20.82402 19.78384,29.34228z"
              fill="#6466f1"
              fill-rule="nonzero"></path>
    </g>
</svg>
